<svg width="244" height="64" viewBox="0 0 244 64" fill="none" xmlns="http://www.w3.org/2000/svg">
<rect width="244" height="64" fill="#F5F5F5"/>
<path d="M-616 -851C-616 -852.104 -615.105 -853 -614 -853H5999C6000.1 -853 6001 -852.105 6001 -851V4217C6001 4218.1 6000.1 4219 5999 4219H-614C-615.105 4219 -616 4218.1 -616 4217V-851Z" fill="#D4D4D4"/>
<path d="M-614 -852H5999V-854H-614V-852ZM6000 -851V4217H6002V-851H6000ZM5999 4218H-614V4220H5999V4218ZM-615 4217V-851H-617V4217H-615ZM-614 4218C-614.552 4218 -615 4217.55 -615 4217H-617C-617 4218.66 -615.657 4220 -614 4220V4218ZM6000 4217C6000 4217.55 5999.55 4218 5999 4218V4220C6000.66 4220 6002 4218.66 6002 4217H6000ZM5999 -852C5999.55 -852 6000 -851.552 6000 -851H6002C6002 -852.657 6000.66 -854 5999 -854V-852ZM-614 -854C-615.657 -854 -617 -852.657 -617 -851H-615C-615 -851.552 -614.552 -852 -614 -852V-854Z" fill="black" fill-opacity="0.1"/>
<rect x="-73.25" y="-349" width="390" height="844" rx="16" fill="#0A0A0A"/>
<path d="M60.847 49.7571H68.5925V30.2427H91.5489V23.5838H68.5925V6.9364H94.2551V0H60.847V49.7571Z" fill="white"/>
<path d="M108.533 11.0059H101.254V49.7573H108.533V11.0059Z" fill="white"/>
<path d="M139.888 9.98846C133.076 9.98846 127.943 14.1503 125.704 20.9942H124.957V11.0058H117.865V49.7572H125.144V27.5607C125.144 20.9017 129.81 16.5549 136.808 16.5549C143.061 16.5549 145.3 20.5318 145.3 25.8035V49.6647H152.579V24.1387C152.486 15.6301 148.567 9.98846 139.888 9.98846Z" fill="white"/>
<path d="M168.723 11.0059H161.444V49.7573H168.723V11.0059Z" fill="white"/>
<path d="M193.826 44.023C189.44 44.023 187.76 41.8033 187.76 37.364V17.0173H200.265V11.0057H187.76V0.184926H180.481V11.0982H174.602V17.1097H180.575V38.3814C180.575 45.5952 184.214 50.8669 192.333 50.8669C195.132 50.8669 198.025 50.497 200.731 49.5721L199.798 43.1906C197.839 43.653 195.879 43.9305 193.826 44.023Z" fill="white"/>
<path d="M235.353 11.0059L230.593 24.9712C228.914 30.0579 226.394 37.1792 224.341 43.3758H223.128C221.075 37.3642 218.369 29.9654 216.502 24.8787L211.463 11.0059H203.438L220.048 49.3873C216.969 56.2312 214.356 57.4335 209.783 57.4335C208.104 57.4335 206.424 57.2486 204.744 56.8786L203.531 63.5376C205.491 63.815 207.45 64 209.503 64C217.809 64 222.568 59.8382 226.674 50.2197L243.285 11.0059H235.353Z" fill="white"/>
<path d="M101.254 0V7.21386H108.533C108.533 3.23699 105.266 0 101.254 0Z" fill="white"/>
<path d="M161.444 0V7.21386H168.723C168.723 3.23699 165.457 0 161.444 0Z" fill="white"/>
<path d="M19.507 24.8786C19.507 38.5664 30.7052 49.6646 44.5164 49.6646V0C30.7052 0 19.507 11.0982 19.507 24.8786Z" fill="white"/>
<path d="M7.00234 24.8786C7.00234 33.7571 11.7616 41.8959 19.507 46.3352V3.42196C11.7616 7.76877 7.00234 16 7.00234 24.8786Z" fill="white"/>
<path d="M0.75 24.8786C0.75 30.8901 2.98964 36.7167 7.00234 41.156V24.8786V8.50865C2.98964 13.0404 0.75 18.867 0.75 24.8786Z" fill="white"/>
</svg>
